<svg width="33" height="38" fill="none" xmlns="http://www.w3.org/2000/svg"><path d="M16.5 38c9 0 16.5-7.4 16.5-16.3-9 0-16.5 7.2-16.5 16.3ZM4.7 16.7c0 2.5 2.1 4.4 4.6 4.4 1 0 1.8-.3 2.6-.8v.3c0 2.6 2 4.5 4.5 4.5 2.6 0 4.5-2 4.5-4.5v-.3c.8.5 1.7.8 2.6.8 2.6 0 4.6-2 4.6-4.4 0-1.9-1-3.4-2.6-4.1A4.4 4.4 0 0 0 28 8.5C28 5.9 26 4 23.5 4c-1 0-1.8.3-2.6.8v-.3C21 1.9 19 0 16.4 0c-2.6 0-4.5 2-4.5 4.5v.3C11 4.3 10.2 4 9.3 4 6.7 4 4.7 6 4.7 8.5c0 1.8 1 3.3 2.6 4a4.6 4.6 0 0 0-2.6 4.2ZM16.5 8a4.5 4.5 0 1 1 0 9 4.5 4.5 0 1 1 0-9ZM0 21.7C0 30.7 7.4 38 16.5 38c0-9-7.4-16.3-16.5-16.3Z" fill="#63D1BB"/></svg>