<svg width="62" height="34" viewBox="0 0 62 34" fill="none" xmlns="http://www.w3.org/2000/svg">
<g clip-path="url(#clip0)">
<path d="M1187.8 0C1172.15 0 1172.15 14 1156.61 14C1141.07 14 1140.96 0 1125.41 0C1109.87 0 1109.76 14 1094.22 14C1078.57 14 1078.57 0 1062.91 0C1047.26 0 1047.26 14 1031.72 14C1016.07 14 1016.07 0 1000.52 0C984.87 0 984.87 14 969.326 14C953.783 14 953.348 0 937.804 0C922.152 0 922.152 14 906.609 14C891.065 14 890.848 0 875.304 0C859.652 0 859.652 14 844.109 14C828.456 14 828.456 0 812.804 0C797.152 0 797.152 14 781.609 14C765.956 14 765.957 0 750.413 0C734.87 0 734.652 14 719 14C703.348 14 703.348 0 687.804 0C672.152 0 672.152 14 656.609 14C640.956 14 640.956 0 625.304 0C609.652 0 609.652 14 594.109 14C578.456 14 578.457 0 562.913 0C547.261 0 547.261 14 531.717 14C516.065 14 516.065 0 500.522 0C484.87 0 484.87 14 469.217 14C453.565 14 453.565 0 437.913 0C422.261 0 422.261 14 406.609 14C390.957 14 390.957 0 375.304 0C359.652 0 359.652 14 344 14C328.348 14 328.348 0 312.696 0C297.043 0 297.043 14 281.391 14C265.739 14 265.739 0 250.087 0C234.435 0 234.435 14 218.891 14C203.239 14 203.239 0 187.587 0C171.935 0 171.935 14 156.283 14C140.63 14 140.63 0 124.978 0C109.326 0 109.326 14 93.6739 14C78.0217 14 78.0217 0 62.3696 0C47.1522 0 47.1522 14 31.5 14C15.8478 14 15.8478 0 0.304346 0C-15.2391 0 -15.3478 14 -31 14V34H1219V14C1203.35 14 1203.35 0 1187.8 0Z" fill="white"/>
</g>
<defs>
<clipPath id="clip0">
<rect width="62" height="34" fill="white"/>
</clipPath>
</defs>
</svg>
